<svg width="1173" height="1580" viewBox="0 0 1173 1580" fill="none" xmlns="http://www.w3.org/2000/svg">
<path d="M266.5 1064.03L485.5 1208.03C473.667 1286.7 427.9 1439.73 339.5 1422.53L322 1332.03L145.5 1472.53L198 1233.03L111 1264.03C104.667 1222.87 126.9 1125.23 266.5 1064.03Z" fill="url(#paint0_linear_446_1027)"/>
<path d="M218 1189.03C214.4 1144.23 279.5 1108.2 314 1095.03L426.5 1168.53C443.7 1229.33 396.333 1280.37 371 1299.53C373 1270.73 361.833 1249.87 356 1243.03C310 1295.83 256.833 1322.03 236 1328.53C218.5 1277.53 271.5 1202.53 269.5 1189.03C267.9 1178.23 234.5 1184.53 218 1189.03Z" fill="url(#paint1_linear_446_1027)"/>
<path d="M701.499 1051.83C711.333 1131.57 740.499 1290.73 778.499 1289.53C825.999 1288.03 939.499 1130.28 900.499 904.657C845.525 957.087 779.753 1006.67 701.499 1051.83Z" fill="#D5403A"/>
<path d="M383 556.033C162.5 587.033 71.5 743.033 71.5 798.033C71.5 850.086 280.287 820.092 304.696 762.135C305.409 758.841 306.175 755.474 306.997 752.033C318.784 702.67 341.926 638.182 383 556.033Z" fill="#D5403A"/>
<path d="M310 882.533C344 919.333 532.666 1046.37 623.999 1093.03C651.099 1079.77 676.915 1066.02 701.499 1051.83C779.753 1006.67 845.525 957.087 900.499 904.657C1084.39 729.274 1147.46 522.039 1152.73 342.033C980.906 305.233 847.317 162.15 802 95.2084C607.623 193.4 474.438 373.157 383 556.033C341.926 638.182 318.784 702.67 306.997 752.033C306.868 755.484 306.077 758.854 304.696 762.135C289.328 833.096 298.516 870.368 310 882.533Z" fill="white"/>
<path d="M310 882.533C285.5 943.033 265 998.533 389.5 1077.03C551.153 1178.96 557.999 1159.03 623.999 1093.03C532.666 1046.37 344 919.333 310 882.533Z" fill="#CFD9DE"/>
<path d="M1098.5 19.5332C986.494 24.1425 888.226 51.6502 802 95.2084C847.317 162.15 980.906 305.233 1152.73 342.033C1156.49 213.469 1130.76 98.7937 1098.5 19.5332Z" fill="#D5403A"/>
<path d="M310 882.533C285.5 943.033 265 998.533 389.5 1077.03C551.153 1178.96 557.999 1159.03 623.999 1093.03M310 882.533C344 919.333 532.666 1046.37 623.999 1093.03M310 882.533C298.516 870.368 289.328 833.096 304.696 762.135M623.999 1093.03C651.099 1079.77 676.915 1066.02 701.499 1051.83M383 556.033C162.5 587.033 71.5 743.033 71.5 798.033C71.5 850.086 280.287 820.092 304.696 762.135M383 556.033C341.926 638.182 318.784 702.67 306.997 752.033M383 556.033C474.438 373.157 607.623 193.4 802 95.2084M701.499 1051.83C711.333 1131.57 740.499 1290.73 778.499 1289.53C825.999 1288.03 939.499 1130.28 900.499 904.657M701.499 1051.83C779.753 1006.67 845.525 957.087 900.499 904.657M900.499 904.657C1084.39 729.274 1147.46 522.039 1152.73 342.033M306.997 752.033C306.175 755.474 305.409 758.841 304.696 762.135M306.997 752.033C306.868 755.484 306.077 758.854 304.696 762.135M802 95.2084C888.226 51.6502 986.494 24.1425 1098.5 19.5332C1130.76 98.7937 1156.49 213.469 1152.73 342.033M802 95.2084C847.317 162.15 980.906 305.233 1152.73 342.033M251.5 1077.03C107.5 1114.53 97.0167 1250.03 107.5 1267.03C117.983 1284.03 205 1217.03 199 1234.53C193 1252.03 121.5 1425.53 131.5 1473.53C141.5 1521.53 300.5 1318.53 321.5 1321.53C342.5 1324.53 333.5 1425.03 342.5 1425.03C400.882 1425.03 512.5 1316.53 475.5 1217.03M342.5 1166.53L296.5 1229.03M306.997 1506.03L283.5 1560.03M61 1330.53L19 1373.03" stroke="black" stroke-width="38" stroke-linecap="round"/>
<path d="M528 1060.03L477.5 1106.03C477.5 1106.03 516.5 1129.03 543 1129.53C569.5 1130.03 593.5 1097.53 593.5 1097.53L528 1060.03Z" fill="#94AAB8"/>
<path d="M623.5 1072.03L560 1035.53C953.6 830.733 1078.83 491.867 1090.5 343.533L1133 356.533C1124.2 765.733 793.167 1000.87 623.5 1072.03Z" fill="#94AAB8"/>
<circle cx="779" cy="520.533" r="182" fill="#D0DADE"/>
<circle cx="768" cy="491.533" r="162" fill="#2277B5" stroke="black" stroke-width="40"/>
<path d="M898.985 471.533C898.985 538.636 829.268 590.033 752.5 590.033C675.732 590.033 638.499 518.033 633.485 481.033C624 411.033 694.218 352.533 770.985 352.533C847.753 352.533 898.985 404.431 898.985 471.533Z" fill="#399BD3"/>
<path d="M693 416.005C709 399.505 753 373.705 801 402.505" stroke="white" stroke-width="41" stroke-linecap="round"/>
<path fill-rule="evenodd" clip-rule="evenodd" d="M1101 83.5332C1104.3 142.487 1111.46 262.18 1102.5 308.533L1134 318.033C1134.5 236.533 1133 199.533 1101 83.5332Z" fill="#B92425"/>
<defs>
<linearGradient id="paint0_linear_446_1027" x1="134" y1="1499.53" x2="351.5" y2="1118.53" gradientUnits="userSpaceOnUse">
<stop stop-color="#F06C22"/>
<stop offset="1" stop-color="#F8B928"/>
</linearGradient>
<linearGradient id="paint1_linear_446_1027" x1="323.549" y1="1093.53" x2="218" y2="1381.53" gradientUnits="userSpaceOnUse">
<stop stop-color="#FBD63F"/>
<stop offset="1" stop-color="#F7C547"/>
</linearGradient>
</defs>
</svg>
